<mxfile host="65bd71144e">
    <diagram id="ZGon5usHhilPiHl8DLRm" name="Page-1">
        <mxGraphModel dx="1280" dy="2531" grid="1" gridSize="10" guides="1" tooltips="1" connect="1" arrows="1" fold="1" page="1" pageScale="1" pageWidth="850" pageHeight="1100" background="none" math="0" shadow="0">
            <root>
                <mxCell id="0"/>
                <mxCell id="1" parent="0"/>
                <mxCell id="3" value="&lt;b&gt;Genre: &lt;/b&gt;Fantaisie, Action&lt;br&gt;&lt;b&gt;Inspiration: &lt;/b&gt;Monster Hunter (2020)&lt;br&gt;&lt;b&gt;Nom: The Hunt&lt;/b&gt;&lt;br&gt;&lt;b&gt;Palette:&lt;/b&gt;&lt;br&gt;&lt;ul style=&quot;&quot;&gt;&lt;li style=&quot;&quot;&gt;Couleur de fond du site:&amp;nbsp;##FFB165&lt;/li&gt;&lt;li style=&quot;&quot;&gt;Couleur de fond du contenu:&amp;nbsp;##B26A23&lt;/li&gt;&lt;li style=&quot;&quot;&gt;Couleur de la police:&amp;nbsp;#000000&lt;/li&gt;&lt;li style=&quot;&quot;&gt;Couleur de fond des boutons:&amp;nbsp;##55D9FF&lt;/li&gt;&lt;li style=&quot;&quot;&gt;Couleur de fond des boutons en hover:&amp;nbsp;##118EB2&lt;/li&gt;&lt;li style=&quot;&quot;&gt;Couleur de la police des boutons:&amp;nbsp;#000000&lt;/li&gt;&lt;li style=&quot;&quot;&gt;Couleur de police des boutons en hover:&amp;nbsp;#000000&lt;/li&gt;&lt;/ul&gt;" style="text;html=1;strokeColor=none;fillColor=none;align=left;verticalAlign=top;whiteSpace=wrap;rounded=0;labelBackgroundColor=#000000;fontSize=12;fontColor=#FFFFFF;" parent="1" vertex="1">
                    <mxGeometry x="310" y="30" width="330" height="230" as="geometry"/>
                </mxCell>
                <mxCell id="8" value="" style="edgeStyle=none;html=1;fontSize=12;labelBackgroundColor=none;" parent="1" source="4" target="7" edge="1">
                    <mxGeometry relative="1" as="geometry"/>
                </mxCell>
                <mxCell id="4" value="Début de la chasse&lt;br&gt;(Explication de l'histoire)" style="rounded=1;whiteSpace=wrap;html=1;labelBackgroundColor=none;fontSize=12;" parent="1" vertex="1">
                    <mxGeometry x="415" y="310" width="150" height="90" as="geometry"/>
                </mxCell>
                <mxCell id="10" value="" style="edgeStyle=none;html=1;fontSize=12;startArrow=none;labelBackgroundColor=none;" parent="1" source="13" target="9" edge="1">
                    <mxGeometry relative="1" as="geometry"/>
                </mxCell>
                <mxCell id="15" value="" style="edgeStyle=none;html=1;fontSize=12;startArrow=none;labelBackgroundColor=none;" parent="1" source="17" target="14" edge="1">
                    <mxGeometry relative="1" as="geometry"/>
                </mxCell>
                <mxCell id="7" value="Inspecter les &lt;br&gt;environs?" style="rhombus;whiteSpace=wrap;html=1;rounded=1;labelBackgroundColor=none;" parent="1" vertex="1">
                    <mxGeometry x="427.5" y="465" width="125" height="125" as="geometry"/>
                </mxCell>
                <mxCell id="11" style="edgeStyle=none;html=1;exitX=0.5;exitY=0;exitDx=0;exitDy=0;entryX=0;entryY=0.5;entryDx=0;entryDy=0;fontSize=12;labelBackgroundColor=none;" parent="1" source="9" target="4" edge="1">
                    <mxGeometry relative="1" as="geometry">
                        <Array as="points">
                            <mxPoint x="285" y="355"/>
                        </Array>
                    </mxGeometry>
                </mxCell>
                <mxCell id="9" value="Vous mourrez&lt;br&gt;(Le monstre vous tend un embuscade)" style="whiteSpace=wrap;html=1;rounded=1;labelBackgroundColor=none;" parent="1" vertex="1">
                    <mxGeometry x="225" y="497.5" width="120" height="60" as="geometry"/>
                </mxCell>
                <mxCell id="12" value="" style="edgeStyle=none;html=1;fontSize=12;endArrow=none;labelBackgroundColor=none;" parent="1" source="7" target="13" edge="1">
                    <mxGeometry relative="1" as="geometry">
                        <mxPoint x="427.5" y="527.5" as="sourcePoint"/>
                        <mxPoint x="345" y="527.5" as="targetPoint"/>
                    </mxGeometry>
                </mxCell>
                <mxCell id="13" value="Non" style="text;html=1;strokeColor=none;fillColor=none;align=center;verticalAlign=middle;whiteSpace=wrap;rounded=0;labelBackgroundColor=none;fontSize=12;" parent="1" vertex="1">
                    <mxGeometry x="365" y="513" width="60" height="30" as="geometry"/>
                </mxCell>
                <mxCell id="34" value="" style="edgeStyle=none;html=1;fontSize=12;labelBackgroundColor=none;" parent="1" source="14" target="33" edge="1">
                    <mxGeometry relative="1" as="geometry"/>
                </mxCell>
                <mxCell id="14" value="Vous trouvez la&amp;nbsp;&lt;br&gt;piste du monstre" style="whiteSpace=wrap;html=1;rounded=1;labelBackgroundColor=none;" parent="1" vertex="1">
                    <mxGeometry x="430" y="645" width="120" height="60" as="geometry"/>
                </mxCell>
                <mxCell id="16" value="" style="edgeStyle=none;html=1;fontSize=12;endArrow=none;labelBackgroundColor=none;" parent="1" source="7" target="17" edge="1">
                    <mxGeometry relative="1" as="geometry">
                        <mxPoint x="490" y="590" as="sourcePoint"/>
                        <mxPoint x="490" y="645" as="targetPoint"/>
                    </mxGeometry>
                </mxCell>
                <mxCell id="17" value="Oui" style="text;html=1;strokeColor=none;fillColor=none;align=center;verticalAlign=middle;whiteSpace=wrap;rounded=0;labelBackgroundColor=none;fontSize=12;" parent="1" vertex="1">
                    <mxGeometry x="460" y="600" width="60" height="30" as="geometry"/>
                </mxCell>
                <mxCell id="28" value="" style="endArrow=classic;html=1;fontSize=12;startArrow=none;entryX=1;entryY=0.5;entryDx=0;entryDy=0;labelBackgroundColor=none;" parent="1" source="30" target="14" edge="1">
                    <mxGeometry width="50" height="50" relative="1" as="geometry">
                        <mxPoint x="575" y="625" as="sourcePoint"/>
                        <mxPoint x="625" y="575" as="targetPoint"/>
                        <Array as="points">
                            <mxPoint x="610" y="675"/>
                        </Array>
                    </mxGeometry>
                </mxCell>
                <mxCell id="29" value="" style="endArrow=none;html=1;fontSize=12;exitX=1;exitY=0.5;exitDx=0;exitDy=0;labelBackgroundColor=none;" parent="1" source="7" target="30" edge="1">
                    <mxGeometry width="50" height="50" relative="1" as="geometry">
                        <mxPoint x="575" y="625.0000000000001" as="sourcePoint"/>
                        <mxPoint x="624.9999999999999" y="575.0000000000001" as="targetPoint"/>
                        <Array as="points">
                            <mxPoint x="610" y="528"/>
                        </Array>
                    </mxGeometry>
                </mxCell>
                <mxCell id="30" value="Envoyer un éclaireur" style="text;html=1;strokeColor=none;fillColor=none;align=center;verticalAlign=middle;whiteSpace=wrap;rounded=0;labelBackgroundColor=none;fontSize=12;" parent="1" vertex="1">
                    <mxGeometry x="575" y="585" width="70" height="30" as="geometry"/>
                </mxCell>
                <mxCell id="36" value="" style="edgeStyle=none;html=1;fontSize=12;startArrow=none;labelBackgroundColor=none;" parent="1" source="38" target="35" edge="1">
                    <mxGeometry relative="1" as="geometry"/>
                </mxCell>
                <mxCell id="40" value="" style="edgeStyle=none;html=1;fontSize=12;startArrow=none;labelBackgroundColor=none;" parent="1" source="42" target="39" edge="1">
                    <mxGeometry relative="1" as="geometry">
                        <Array as="points">
                            <mxPoint x="665" y="810"/>
                            <mxPoint x="665" y="1165"/>
                        </Array>
                    </mxGeometry>
                </mxCell>
                <mxCell id="33" value="Explorer les environs" style="rhombus;whiteSpace=wrap;html=1;rounded=1;labelBackgroundColor=none;" parent="1" vertex="1">
                    <mxGeometry x="435" y="755" width="110" height="110" as="geometry"/>
                </mxCell>
                <mxCell id="43" value="" style="edgeStyle=none;html=1;fontSize=12;labelBackgroundColor=none;" parent="1" source="35" target="39" edge="1">
                    <mxGeometry relative="1" as="geometry"/>
                </mxCell>
                <mxCell id="35" value="Vous trouvez une bombe" style="whiteSpace=wrap;html=1;rounded=1;labelBackgroundColor=none;" parent="1" vertex="1">
                    <mxGeometry x="430" y="970" width="120" height="60" as="geometry"/>
                </mxCell>
                <mxCell id="37" value="" style="edgeStyle=none;html=1;fontSize=12;endArrow=none;labelBackgroundColor=none;" parent="1" source="33" target="38" edge="1">
                    <mxGeometry relative="1" as="geometry">
                        <mxPoint x="490" y="865" as="sourcePoint"/>
                        <mxPoint x="490" y="970" as="targetPoint"/>
                    </mxGeometry>
                </mxCell>
                <mxCell id="38" value="Oui" style="text;html=1;strokeColor=none;fillColor=none;align=center;verticalAlign=middle;whiteSpace=wrap;rounded=0;labelBackgroundColor=none;fontSize=12;" parent="1" vertex="1">
                    <mxGeometry x="460" y="895" width="60" height="30" as="geometry"/>
                </mxCell>
                <mxCell id="49" value="" style="edgeStyle=none;html=1;fontSize=12;labelBackgroundColor=none;" parent="1" source="39" target="48" edge="1">
                    <mxGeometry relative="1" as="geometry"/>
                </mxCell>
                <mxCell id="39" value="Attaquer le monstre" style="whiteSpace=wrap;html=1;rounded=1;labelBackgroundColor=none;" parent="1" vertex="1">
                    <mxGeometry x="430" y="1135" width="120" height="60" as="geometry"/>
                </mxCell>
                <mxCell id="41" value="" style="edgeStyle=none;html=1;fontSize=12;endArrow=none;labelBackgroundColor=none;" parent="1" source="33" target="42" edge="1">
                    <mxGeometry relative="1" as="geometry">
                        <mxPoint x="545" y="810" as="sourcePoint"/>
                        <mxPoint x="620" y="810" as="targetPoint"/>
                    </mxGeometry>
                </mxCell>
                <mxCell id="42" value="Non" style="text;html=1;strokeColor=none;fillColor=none;align=center;verticalAlign=middle;whiteSpace=wrap;rounded=0;labelBackgroundColor=none;fontSize=12;" parent="1" vertex="1">
                    <mxGeometry x="565" y="795" width="60" height="30" as="geometry"/>
                </mxCell>
                <mxCell id="51" value="" style="edgeStyle=none;html=1;fontSize=12;startArrow=none;labelBackgroundColor=none;" parent="1" source="58" target="50" edge="1">
                    <mxGeometry relative="1" as="geometry"/>
                </mxCell>
                <mxCell id="56" value="" style="edgeStyle=orthogonalEdgeStyle;html=1;fontSize=12;startArrow=none;labelBackgroundColor=none;" parent="1" source="60" target="55" edge="1">
                    <mxGeometry relative="1" as="geometry"/>
                </mxCell>
                <mxCell id="48" value="Le monstre&lt;br&gt;&amp;nbsp;vous attaque, comment réagisser vou?" style="rhombus;whiteSpace=wrap;html=1;rounded=1;labelBackgroundColor=none;" parent="1" vertex="1">
                    <mxGeometry x="430" y="1265" width="120" height="120" as="geometry"/>
                </mxCell>
                <mxCell id="54" style="edgeStyle=orthogonalEdgeStyle;html=1;exitX=0;exitY=0.5;exitDx=0;exitDy=0;fontSize=12;labelBackgroundColor=none;fontColor=#FFFFFF;" parent="1" source="50" edge="1">
                    <mxGeometry relative="1" as="geometry">
                        <mxPoint x="315" y="355" as="targetPoint"/>
                        <Array as="points">
                            <mxPoint x="185" y="1325"/>
                            <mxPoint x="185" y="355"/>
                            <mxPoint x="295" y="355"/>
                        </Array>
                    </mxGeometry>
                </mxCell>
                <mxCell id="50" value="L'attaque du monstre&amp;nbsp;&lt;br&gt;brise vos côte et vous mourrez as phixié" style="whiteSpace=wrap;html=1;rounded=1;labelBackgroundColor=none;" parent="1" vertex="1">
                    <mxGeometry x="215" y="1295" width="120" height="60" as="geometry"/>
                </mxCell>
                <mxCell id="62" value="" style="edgeStyle=none;html=1;fontSize=12;labelBackgroundColor=none;" parent="1" source="55" target="61" edge="1">
                    <mxGeometry relative="1" as="geometry"/>
                </mxCell>
                <mxCell id="55" value="Le monstre est trop puissant! Il faut une attaque puissante pour en finir" style="whiteSpace=wrap;html=1;rounded=1;labelBackgroundColor=none;" parent="1" vertex="1">
                    <mxGeometry x="430" y="1475" width="120" height="60" as="geometry"/>
                </mxCell>
                <mxCell id="57" value="" style="edgeStyle=none;html=1;fontSize=12;endArrow=none;labelBackgroundColor=none;" parent="1" source="48" target="58" edge="1">
                    <mxGeometry relative="1" as="geometry">
                        <mxPoint x="440" y="1325" as="sourcePoint"/>
                        <mxPoint x="335" y="1325" as="targetPoint"/>
                    </mxGeometry>
                </mxCell>
                <mxCell id="58" value="Bloquer" style="text;html=1;strokeColor=none;fillColor=none;align=center;verticalAlign=middle;whiteSpace=wrap;rounded=0;labelBackgroundColor=none;fontSize=12;" parent="1" vertex="1">
                    <mxGeometry x="365" y="1310" width="60" height="30" as="geometry"/>
                </mxCell>
                <mxCell id="59" value="" style="edgeStyle=orthogonalEdgeStyle;html=1;fontSize=12;endArrow=none;labelBackgroundColor=none;" parent="1" source="48" target="60" edge="1">
                    <mxGeometry relative="1" as="geometry">
                        <mxPoint x="490" y="1375" as="sourcePoint"/>
                        <mxPoint x="490" y="1475" as="targetPoint"/>
                    </mxGeometry>
                </mxCell>
                <mxCell id="60" value="Esquiver" style="text;html=1;strokeColor=none;fillColor=none;align=center;verticalAlign=middle;whiteSpace=wrap;rounded=0;labelBackgroundColor=none;fontSize=12;" parent="1" vertex="1">
                    <mxGeometry x="460" y="1405" width="60" height="30" as="geometry"/>
                </mxCell>
                <mxCell id="64" value="" style="edgeStyle=none;html=1;fontSize=12;startArrow=none;labelBackgroundColor=none;" parent="1" source="66" target="63" edge="1">
                    <mxGeometry relative="1" as="geometry"/>
                </mxCell>
                <mxCell id="68" value="" style="edgeStyle=none;html=1;fontSize=12;startArrow=none;labelBackgroundColor=none;" parent="1" source="71" target="67" edge="1">
                    <mxGeometry relative="1" as="geometry"/>
                </mxCell>
                <mxCell id="61" value="Avez vous &lt;br&gt;une bombe?" style="rhombus;whiteSpace=wrap;html=1;rounded=1;labelBackgroundColor=none;" parent="1" vertex="1">
                    <mxGeometry x="440" y="1605" width="100" height="100" as="geometry"/>
                </mxCell>
                <mxCell id="63" value="Vous tuer le monstre,&lt;br&gt;WOW!" style="whiteSpace=wrap;html=1;rounded=1;labelBackgroundColor=none;" parent="1" vertex="1">
                    <mxGeometry x="430" y="1805" width="120" height="60" as="geometry"/>
                </mxCell>
                <mxCell id="65" value="" style="edgeStyle=none;html=1;fontSize=12;endArrow=none;labelBackgroundColor=none;" parent="1" source="61" target="66" edge="1">
                    <mxGeometry relative="1" as="geometry">
                        <mxPoint x="490" y="1705" as="sourcePoint"/>
                        <mxPoint x="490" y="1805" as="targetPoint"/>
                    </mxGeometry>
                </mxCell>
                <mxCell id="66" value="Oui" style="text;html=1;strokeColor=none;fillColor=none;align=center;verticalAlign=middle;whiteSpace=wrap;rounded=0;labelBackgroundColor=none;fontSize=12;" parent="1" vertex="1">
                    <mxGeometry x="460" y="1735" width="60" height="30" as="geometry"/>
                </mxCell>
                <mxCell id="69" style="edgeStyle=none;html=1;exitX=0;exitY=0.5;exitDx=0;exitDy=0;fontSize=12;labelBackgroundColor=none;" parent="1" source="67" edge="1">
                    <mxGeometry relative="1" as="geometry">
                        <mxPoint x="185" y="1275" as="targetPoint"/>
                        <Array as="points">
                            <mxPoint x="185" y="1655"/>
                        </Array>
                    </mxGeometry>
                </mxCell>
                <mxCell id="67" value="Le monstre vous écrase avec ses pied&lt;br&gt;(Vous mourrez)" style="whiteSpace=wrap;html=1;rounded=1;labelBackgroundColor=none;" parent="1" vertex="1">
                    <mxGeometry x="215" y="1625" width="120" height="60" as="geometry"/>
                </mxCell>
                <mxCell id="70" value="" style="edgeStyle=none;html=1;fontSize=12;endArrow=none;labelBackgroundColor=none;" parent="1" source="61" target="71" edge="1">
                    <mxGeometry relative="1" as="geometry">
                        <mxPoint x="440" y="1655" as="sourcePoint"/>
                        <mxPoint x="335" y="1655" as="targetPoint"/>
                    </mxGeometry>
                </mxCell>
                <mxCell id="71" value="Non" style="text;html=1;strokeColor=none;fillColor=none;align=center;verticalAlign=middle;whiteSpace=wrap;rounded=0;labelBackgroundColor=none;" parent="1" vertex="1">
                    <mxGeometry x="360" y="1640" width="60" height="30" as="geometry"/>
                </mxCell>
            </root>
        </mxGraphModel>
    </diagram>
</mxfile>